<svg width="17" height="17" viewBox="0 0 17 17" fill="none" xmlns="http://www.w3.org/2000/svg">
<path d="M6.2557 15.0786V12.7785C6.25568 12.1935 6.75772 11.7181 7.37975 11.7142H9.65823C10.2832 11.7142 10.7899 12.1907 10.7899 12.7785V15.0857C10.7897 15.5824 11.2113 15.9884 11.7392 16H13.2582C14.7725 16 16 14.8455 16 13.4214V6.87838C15.9919 6.31812 15.7122 5.79201 15.2405 5.44977L10.0456 1.51398C9.13548 0.828675 7.84174 0.828675 6.93165 1.51398L1.75949 5.45692C1.28599 5.79777 1.00583 6.32475 1 6.88552V13.4214C1 14.8455 2.22753 16 3.74177 16H5.26076C5.80186 16 6.24051 15.5875 6.24051 15.0786" stroke="white" stroke-width="1.5" stroke-linecap="round" stroke-linejoin="round"/>
</svg>
