<svg width="18" height="15" viewBox="0 0 18 15" fill="none" xmlns="http://www.w3.org/2000/svg">
<path d="M16.1171 0H1.88289C1.38369 0.000652897 0.905102 0.228842 0.552114 0.634506C0.199126 1.04017 0.000568117 1.59018 0 2.16388V12.8361C0.000568117 13.4098 0.199126 13.9598 0.552114 14.3655C0.905102 14.7712 1.38369 14.9993 1.88289 15H16.1171C16.6163 14.9993 17.0949 14.7712 17.4479 14.3655C17.8009 13.9598 17.9994 13.4098 18 12.8361V2.16388C17.9995 1.59018 17.8009 1.04016 17.4479 0.634496C17.0949 0.228828 16.6163 0.000641487 16.1171 0ZM12.7694 7.49706L17.2469 3.45848V12.4922L12.7694 7.49706ZM1.88289 0.865551H16.1171C16.4166 0.865941 16.7038 1.00285 16.9156 1.24625C17.1274 1.48965 17.2465 1.81966 17.2468 2.16388V2.35819L10.0011 8.89388C9.73618 9.13156 9.40967 9.26052 9.07359 9.2602C8.7375 9.25989 8.41118 9.13033 8.1466 8.89215L0.753157 2.35655V2.16388C0.753496 1.81966 0.87263 1.48965 1.08442 1.24625C1.29622 1.00285 1.58337 0.865941 1.88289 0.865551ZM5.36391 7.52424L0.753157 12.5096V3.44853L5.36391 7.52424ZM16.1171 14.1344H1.88289C1.69002 14.1343 1.50039 14.0775 1.33205 13.9693C1.16372 13.8611 1.02227 13.7052 0.921186 13.5164L5.96862 8.05915L7.68514 9.57646C8.08211 9.93282 8.57141 10.1263 9.07514 10.1262C9.57887 10.126 10.0681 9.93223 10.4649 9.57564L12.1715 8.03664L17.0808 13.513C16.9799 13.7027 16.8383 13.8595 16.6696 13.9683C16.5008 14.0771 16.3106 14.1343 16.1171 14.1344Z" fill="white"/>
</svg>
